<svg xmlns="http://www.w3.org/2000/svg" xmlns:xlink="http://www.w3.org/1999/xlink" preserveAspectRatio="xMidYMid meet" version="1.0" viewBox="-0.1 0.0 122.6 126.0" zoomAndPan="magnify" style="fill: rgb(51, 51, 51);" original_string_length="13112"><g id="__id104_saa67eivym"><path d="M35.294,35.988c0,4.616,1.219,8.951,3.343,12.709c0.014,0.036,0.038,0.064,0.056,0.098 c3.584,6.277,9.712,10.917,16.973,12.506c0.027,0.008,0.054,0.013,0.082,0.019c1.762,0.38,3.588,0.584,5.461,0.584 c0,0,0.001,0,0.002,0c0,0,0,0,0,0c9.628-0.001,18.04-5.283,22.508-13.098c0.021-0.038,0.048-0.071,0.065-0.112 c2.123-3.757,3.341-8.091,3.341-12.706s-1.218-8.948-3.341-12.706c-0.016-0.041-0.043-0.074-0.065-0.113 C79.391,15.6,71.362,10.414,62.112,10.095l-0.017-9.097C62.094,0.446,61.646,0,61.095,0c0,0-0.001,0-0.002,0 c-0.552,0.001-0.999,0.449-0.998,1.002l0.017,9.098c-1.492,0.063-2.951,0.252-4.368,0.557c-0.018,0.004-0.035,0.007-0.053,0.012 c-7.272,1.584-13.41,6.228-16.999,12.512c-0.018,0.034-0.042,0.062-0.057,0.098C36.512,27.038,35.294,31.372,35.294,35.988z M85.1,34.988H74.566c-0.07-3.458-0.571-6.906-1.51-10.34h9.204C83.937,27.749,84.946,31.26,85.1,34.988z M82.26,47.328h-9.28 c0.955-3.453,1.482-6.901,1.579-10.34H85.1C84.946,40.717,83.937,44.228,82.26,47.328z M62.207,59.879l-0.02-10.551h8.054 c-1.146,3.39-2.706,6.784-4.713,10.178C64.445,59.705,63.336,59.832,62.207,59.879z M56.593,59.453 c-1.992-3.376-3.542-6.753-4.683-10.125h8.277l0.02,10.551C58.976,59.828,57.769,59.684,56.593,59.453z M37.319,36.988h10.273 c0.097,3.439,0.624,6.887,1.579,10.34h-9.012C38.482,44.228,37.473,40.717,37.319,36.988z M49.637,36.988h10.527l0.02,10.34h-8.913 C50.275,43.875,49.738,40.427,49.637,36.988z M62.183,47.328l-0.02-10.34h10.351c-0.101,3.438-0.638,6.886-1.634,10.34H62.183z M72.527,34.988H62.16l-0.02-10.34h8.809C71.929,28.081,72.454,31.529,72.527,34.988z M60.16,34.988H49.625 c0.073-3.459,0.597-6.907,1.578-10.34h8.938L60.16,34.988z M47.585,34.988H37.319c0.154-3.728,1.163-7.239,2.839-10.34h8.937 C48.157,28.082,47.655,31.53,47.585,34.988z M41.369,49.328h8.402c1.018,3.139,2.39,6.282,4.116,9.425 C48.735,57.092,44.339,53.731,41.369,49.328z M68.207,58.857c1.753-3.178,3.143-6.355,4.172-9.529h8.67 C78.018,53.823,73.5,57.234,68.207,58.857z M81.05,22.648h-8.593c-1.03-3.187-2.434-6.362-4.215-9.52 C73.52,14.756,78.024,18.163,81.05,22.648z M65.534,12.471c2.05,3.373,3.633,6.767,4.784,10.177h-8.182l-0.02-10.553 C63.279,12.139,64.419,12.267,65.534,12.471z M60.136,22.648h-8.304c1.145-3.392,2.719-6.768,4.754-10.124 c1.15-0.226,2.328-0.37,3.53-0.425L60.136,22.648z M53.85,13.236c-1.753,3.123-3.138,6.261-4.156,9.413h-8.325 C44.331,18.257,48.714,14.901,53.85,13.236z" style="fill: inherit;"/><path d="M41.917,73.675H17.64c-3.958,0-7.178,3.221-7.178,7.179v37.969c0,3.958,3.22,7.178,7.178,7.178h24.277 c3.958,0,7.178-3.22,7.178-7.178V80.854C49.095,76.896,45.875,73.675,41.917,73.675z M47.095,118.822 c0,2.855-2.323,5.178-5.178,5.178H17.64c-2.855,0-5.178-2.322-5.178-5.178V80.854c0-2.855,2.323-5.179,5.178-5.179h24.277 c2.855,0,5.178,2.323,5.178,5.179V118.822z" style="fill: inherit;"/><path d="M22.008,87.276h15.54c2.194,0,3.98-1.785,3.98-3.979c0-2.195-1.786-3.98-3.98-3.98h-15.54c-2.194,0-3.98,1.785-3.98,3.98 C18.029,85.491,19.814,87.276,22.008,87.276z M22.008,81.316h15.54c1.092,0,1.98,0.889,1.98,1.98s-0.888,1.979-1.98,1.979h-15.54 c-1.092,0-1.98-0.888-1.98-1.979S20.917,81.316,22.008,81.316z" style="fill: inherit;"/><path d="M29.779,96.452c-5.54,0-10.047,4.508-10.047,10.048s4.507,10.047,10.047,10.047s10.047-4.507,10.047-10.047 S35.319,96.452,29.779,96.452z M29.779,114.547c-4.437,0-8.047-3.609-8.047-8.047s3.61-8.048,8.047-8.048 c4.438,0,8.047,3.61,8.047,8.048S34.216,114.547,29.779,114.547z" style="fill: inherit;"/><path d="M29.779,92.728c-7.594,0-13.772,6.179-13.772,13.772s6.178,13.772,13.772,13.772s13.772-6.179,13.772-13.772 S37.373,92.728,29.779,92.728z M29.779,118.272c-6.491,0-11.772-5.281-11.772-11.772s5.281-11.772,11.772-11.772 s11.772,5.281,11.772,11.772S36.27,118.272,29.779,118.272z" style="fill: inherit;"/><path d="M104.55,73.675H80.273c-3.958,0-7.178,3.221-7.178,7.179v37.969c0,3.958,3.22,7.178,7.178,7.178h24.277 c3.958,0,7.178-3.22,7.178-7.178V80.854C111.728,76.896,108.508,73.675,104.55,73.675z M109.728,118.822 c0,2.855-2.323,5.178-5.178,5.178H80.273c-2.855,0-5.178-2.322-5.178-5.178V80.854c0-2.855,2.323-5.179,5.178-5.179h24.277 c2.855,0,5.178,2.323,5.178,5.179V118.822z" style="fill: inherit;"/><path d="M84.642,87.276h15.54c2.195,0,3.98-1.785,3.98-3.979c0-2.195-1.786-3.98-3.98-3.98h-15.54c-2.195,0-3.98,1.785-3.98,3.98 C80.661,85.491,82.447,87.276,84.642,87.276z M84.642,81.316h15.54c1.092,0,1.98,0.889,1.98,1.98s-0.889,1.979-1.98,1.979h-15.54 c-1.092,0-1.98-0.888-1.98-1.979S83.55,81.316,84.642,81.316z" style="fill: inherit;"/><path d="M92.412,96.452c-5.54,0-10.047,4.508-10.047,10.048s4.507,10.047,10.047,10.047s10.047-4.507,10.047-10.047 S97.952,96.452,92.412,96.452z M92.412,114.547c-4.438,0-8.047-3.609-8.047-8.047s3.61-8.048,8.047-8.048 c4.437,0,8.047,3.61,8.047,8.048S96.849,114.547,92.412,114.547z" style="fill: inherit;"/><path d="M92.412,92.728c-7.594,0-13.772,6.179-13.772,13.772s6.178,13.772,13.772,13.772c7.594,0,13.772-6.179,13.772-13.772 S100.006,92.728,92.412,92.728z M92.412,118.272c-6.491,0-11.772-5.281-11.772-11.772s5.281-11.772,11.772-11.772 s11.772,5.281,11.772,11.772S98.903,118.272,92.412,118.272z" style="fill: inherit;"/><path d="M14.534,68.048c0.606,0.391,1.341,0.597,2.106,0.597c0.143,0,0.287-0.007,0.432-0.021c1.979-0.2,3.45-1.737,3.28-3.428 c-0.002-0.023-0.012-0.044-0.015-0.068c-0.002-0.011,0.002-0.021,0-0.032l-1.003-4.917c1.069-1.201,2.563-2.175,4.449-2.897 c0.36-0.138,0.609-0.471,0.64-0.855c0.03-0.385-0.164-0.753-0.499-0.945c-2.266-1.304-4.574-1.549-6.863-0.728 c-0.468,0.168-0.742,0.654-0.643,1.142l0.855,4.189c0.002,0.016,0.005,0.03,0.009,0.045l0.5,2.449 c-0.42-0.096-0.867-0.132-1.329-0.085c-1.979,0.201-3.45,1.739-3.279,3.428C13.259,66.771,13.755,67.545,14.534,68.048z M20.923,56.413c-0.763,0.429-1.452,0.908-2.065,1.436L18.563,56.4C19.351,56.234,20.135,56.238,20.923,56.413z M16.654,64.483 c0.073-0.008,0.146-0.011,0.219-0.011c0.71,0,1.332,0.348,1.461,0.815l0.026,0.128c0.04,0.567-0.647,1.132-1.49,1.217 c-0.459,0.048-0.918-0.051-1.253-0.266c-0.155-0.101-0.421-0.318-0.454-0.647C15.106,65.147,15.802,64.569,16.654,64.483z" style="fill: inherit;"/><path d="M90.73,59.285c0.03-0.385-0.164-0.753-0.499-0.945c-2.266-1.302-4.576-1.548-6.864-0.727 c-0.468,0.168-0.742,0.654-0.643,1.142l0.857,4.199c0.001,0.008,0.003,0.016,0.005,0.023l0.5,2.452 c-0.425-0.095-0.874-0.123-1.327-0.076c-0.917,0.093-1.76,0.473-2.372,1.071c-0.663,0.647-0.994,1.507-0.908,2.355 c0.086,0.85,0.582,1.625,1.36,2.127c0.605,0.391,1.34,0.597,2.104,0.597c0.144,0,0.289-0.007,0.434-0.021 c0.917-0.093,1.76-0.473,2.372-1.071c0.663-0.647,0.994-1.506,0.908-2.355c-0.002-0.023-0.012-0.044-0.015-0.067 c-0.002-0.011,0.002-0.021,0-0.033l-1.003-4.917c1.069-1.202,2.564-2.176,4.45-2.898C90.451,60.003,90.7,59.67,90.73,59.285z M83.177,69.492c-0.459,0.048-0.918-0.051-1.252-0.266c-0.155-0.101-0.421-0.317-0.454-0.647c-0.034-0.329,0.184-0.595,0.315-0.724 c0.285-0.279,0.713-0.465,1.175-0.512c0.076-0.008,0.151-0.012,0.227-0.012c0.382,0,0.747,0.098,1.027,0.278 c0.143,0.092,0.374,0.29,0.435,0.578l0.018,0.087c0.023,0.32-0.185,0.578-0.315,0.705C84.068,69.26,83.64,69.445,83.177,69.492z M85.165,60.708l-0.295-1.447c0.789-0.165,1.572-0.161,2.36,0.012C86.467,59.701,85.778,60.181,85.165,60.708z" style="fill: inherit;"/><path d="M112.107,58.201c-0.531-0.146-1.083,0.164-1.231,0.697l-1.819,6.565c-0.336-0.277-0.723-0.506-1.147-0.671 c-1.855-0.721-3.863-0.019-4.479,1.563c-0.616,1.582,0.392,3.456,2.246,4.178c0.495,0.192,1,0.283,1.488,0.283 c1.339,0,2.539-0.687,2.991-1.847c0.008-0.02,0.008-0.041,0.016-0.061c0.004-0.012,0.013-0.022,0.016-0.034l2.617-9.443 C112.951,58.899,112.639,58.349,112.107,58.201z M106.402,68.671c-0.798-0.311-1.315-1.054-1.106-1.59 c0.141-0.363,0.592-0.571,1.117-0.571c0.25,0,0.516,0.047,0.773,0.146c0.432,0.168,0.795,0.462,0.995,0.807 c0.086,0.148,0.202,0.429,0.125,0.714l-0.024,0.086C108.06,68.785,107.19,68.976,106.402,68.671z" style="fill: inherit;"/><path d="M121.675,86.38c-0.532-0.146-1.083,0.164-1.231,0.697l-1.822,6.575c-0.331-0.276-0.712-0.511-1.145-0.679 c-0.86-0.336-1.783-0.379-2.6-0.124c-0.884,0.276-1.569,0.891-1.879,1.687c-0.615,1.584,0.393,3.458,2.246,4.178 c0.491,0.191,1.002,0.287,1.503,0.287c0.376,0,0.747-0.054,1.097-0.163c0.802-0.251,1.424-0.788,1.767-1.478 c0.004-0.006,0.006-0.013,0.01-0.02c0.031-0.064,0.075-0.122,0.101-0.189c0.008-0.02,0.009-0.042,0.016-0.062 c0.004-0.012,0.012-0.021,0.016-0.034l2.617-9.444C122.519,87.078,122.207,86.527,121.675,86.38z M117.248,96.928 c-0.379,0.117-0.846,0.09-1.279-0.078c-0.798-0.311-1.315-1.054-1.106-1.59c0.12-0.308,0.434-0.446,0.611-0.502 c0.155-0.048,0.324-0.072,0.499-0.072c0.255,0,0.523,0.051,0.78,0.15c0.758,0.295,1.255,0.978,1.124,1.507l-0.027,0.099 C117.725,96.737,117.421,96.873,117.248,96.928z" style="fill: inherit;"/><path d="M91.467,36.97c0,0.553,0.448,1,1,1c2.241,0,3.802,3.311,3.802,6.281c0,0.553,0.448,1,1,1s1-0.447,1-1 c0-2.971,1.562-6.281,3.802-6.281c0.552,0,1-0.447,1-1s-0.448-1-1-1c-2.496,0-3.802-3.147-3.802-6.257c0-0.553-0.448-1-1-1 s-1,0.447-1,1c0,3.109-1.306,6.257-3.802,6.257C91.915,35.97,91.467,36.417,91.467,36.97z M97.27,34.535 c0.499,1.04,1.166,1.886,1.959,2.478c-0.808,0.653-1.469,1.57-1.959,2.625c-0.491-1.055-1.151-1.972-1.959-2.625 C96.104,36.421,96.771,35.575,97.27,34.535z" style="fill: inherit;"/><path d="M82.795,11.271c2.241,0,3.802,3.311,3.802,6.281c0,0.553,0.448,1,1,1s1-0.447,1-1c0-2.971,1.562-6.281,3.802-6.281 c0.552,0,1-0.447,1-1s-0.448-1-1-1c-2.496,0-3.802-3.148-3.802-6.258c0-0.553-0.448-1-1-1s-1,0.447-1,1 c0,3.109-1.306,6.258-3.802,6.258c-0.552,0-1,0.447-1,1S82.243,11.271,82.795,11.271z M87.597,7.837 c0.499,1.04,1.166,1.886,1.959,2.478c-0.808,0.653-1.469,1.57-1.959,2.625c-0.491-1.055-1.151-1.972-1.959-2.625 C86.432,9.723,87.099,8.877,87.597,7.837z" style="fill: inherit;"/><path d="M31.491,61.988c-0.552,0-1,0.447-1,1s0.448,1,1,1c2.241,0,3.802,3.311,3.802,6.281c0,0.553,0.448,1,1,1s1-0.447,1-1 c0-2.971,1.562-6.281,3.802-6.281c0.552,0,1-0.447,1-1s-0.448-1-1-1c-2.496,0-3.802-3.148-3.802-6.258c0-0.553-0.448-1-1-1 s-1,0.447-1,1C35.294,58.84,33.987,61.988,31.491,61.988z M36.294,60.554c0.499,1.04,1.166,1.886,1.959,2.478 c-0.808,0.653-1.469,1.57-1.959,2.625c-0.491-1.055-1.151-1.972-1.959-2.625C35.128,62.439,35.795,61.594,36.294,60.554z" style="fill: inherit;"/><path d="M24.393,20.591c2.241,0,3.802,3.311,3.802,6.281c0,0.553,0.448,1,1,1s1-0.447,1-1c0-2.971,1.562-6.281,3.802-6.281 c0.552,0,1-0.447,1-1s-0.448-1-1-1c-2.496,0-3.802-3.147-3.802-6.257c0-0.553-0.448-1-1-1s-1,0.447-1,1 c0,3.109-1.306,6.257-3.802,6.257c-0.552,0-1,0.447-1,1S23.841,20.591,24.393,20.591z M29.196,17.156 c0.499,1.04,1.166,1.886,1.959,2.478c-0.808,0.653-1.469,1.57-1.959,2.625c-0.491-1.055-1.151-1.972-1.959-2.625 C28.03,19.042,28.697,18.196,29.196,17.156z" style="fill: inherit;"/><path d="M67.867,75.185l-7.369-5.226c-0.251-0.177-0.569-0.23-0.866-0.143c-0.295,0.089-0.533,0.309-0.645,0.596l-2.47,6.35 c-0.306-0.31-0.668-0.576-1.074-0.783c-0.821-0.419-1.734-0.556-2.574-0.384c-0.908,0.186-1.651,0.729-2.039,1.489 c-0.771,1.513,0.042,3.479,1.814,4.382c0.59,0.301,1.228,0.456,1.851,0.456c0.245,0,0.487-0.023,0.724-0.072 c0.908-0.186,1.651-0.729,2.039-1.489c0.01-0.02,0.013-0.043,0.023-0.063c0.005-0.011,0.014-0.018,0.018-0.029l3.088-7.938 l5.687,4.032l-2.187,5.623c-0.306-0.31-0.668-0.576-1.074-0.783c-0.822-0.418-1.736-0.557-2.574-0.384 c-0.908,0.186-1.651,0.729-2.039,1.489c-0.771,1.513,0.042,3.479,1.814,4.382c0.59,0.301,1.228,0.456,1.851,0.456 c0.245,0,0.487-0.023,0.724-0.072c0.828-0.169,1.505-0.646,1.914-1.304c0.015-0.018,0.026-0.04,0.04-0.06 c0.026-0.044,0.061-0.08,0.084-0.125c0.009-0.018,0.012-0.037,0.02-0.055c0.006-0.013,0.016-0.023,0.021-0.037l3.553-9.133 C68.387,75.936,68.241,75.449,67.867,75.185z M54.818,79.892c-0.389,0.079-0.85,0.005-1.264-0.206 c-0.763-0.39-1.203-1.18-0.942-1.692c0.15-0.295,0.477-0.401,0.659-0.438c0.102-0.021,0.209-0.031,0.319-0.031 c0.309,0,0.64,0.082,0.945,0.237c0.413,0.211,0.745,0.54,0.909,0.902c0.071,0.156,0.156,0.444,0.054,0.719l-0.034,0.087 C55.31,79.75,54.996,79.855,54.818,79.892z M62.187,85.117c-0.388,0.078-0.85,0.005-1.264-0.206 c-0.763-0.39-1.203-1.18-0.941-1.692c0.15-0.295,0.477-0.401,0.658-0.438c0.102-0.021,0.209-0.031,0.319-0.031 c0.31,0,0.641,0.082,0.946,0.238c0.413,0.21,0.744,0.538,0.909,0.901c0.071,0.155,0.156,0.444,0.054,0.719l-0.034,0.087 C62.679,84.976,62.364,85.081,62.187,85.117z" style="fill: inherit;"/><path d="M7.176,101.841l-1.958-9.602c-0.11-0.541-0.635-0.89-1.18-0.779c-0.542,0.11-0.891,0.639-0.78,1.18l1.361,6.674 c-0.425-0.095-0.874-0.123-1.327-0.076c-0.917,0.093-1.76,0.473-2.372,1.071c-0.663,0.647-0.994,1.507-0.908,2.355 c0.086,0.85,0.582,1.625,1.36,2.127c0.606,0.391,1.341,0.598,2.107,0.598c0.144,0,0.288-0.007,0.432-0.021 c1.979-0.201,3.45-1.739,3.279-3.428c-0.002-0.023-0.012-0.044-0.015-0.067C7.175,101.862,7.179,101.852,7.176,101.841z M3.711,103.378c-0.458,0.047-0.918-0.05-1.253-0.267c-0.156-0.101-0.421-0.317-0.455-0.647c-0.034-0.329,0.184-0.595,0.315-0.724 c0.285-0.279,0.713-0.465,1.175-0.512c0.076-0.008,0.151-0.012,0.227-0.012c0.382,0,0.747,0.098,1.027,0.278 c0.143,0.092,0.373,0.289,0.435,0.578l0.018,0.088C5.24,102.727,4.553,103.293,3.711,103.378z" style="fill: inherit;"/></g></svg>